<?xml version="1.0" encoding="UTF-8" standalone="no"?>
<!DOCTYPE svg PUBLIC "-//W3C//DTD SVG 1.1//EN" "http://www.w3.org/Graphics/SVG/1.1/DTD/svg11.dtd">
<svg width="100%" height="100%" viewBox="0 0 600 600" version="1.1" xmlns="http://www.w3.org/2000/svg" xmlns:xlink="http://www.w3.org/1999/xlink" xml:space="preserve" xmlns:serif="http://www.serif.com/" style="fill-rule:evenodd;clip-rule:evenodd;stroke-linejoin:round;stroke-miterlimit:2;">
    <g transform="matrix(0,1.333333,-1.333333,0,606.434319,7.983911)">
        <path d="M293.541,404.547C260.613,452.652 185.212,451.803 153.784,401.999C88.61,425.38 23.488,360.279 46.827,295.106C-2.769,263.634 -3.595,188.455 44.351,155.529C29.327,94.774 88.32,37.321 149.177,55.319C178.629,-5.719 267.906,-6.431 298.755,53.182C354.447,43.368 405.513,94.461 395.648,150.157C455.464,180.94 454.776,270.438 393.584,299.87C411.371,360.578 354.142,419.351 293.541,404.547ZM283.157,224.087L116.971,281.111L116.971,300.119L307.053,338.136L307.053,329.718L142.496,296.861L307.053,240.379L307.053,223.272L142.225,166.79L307.053,133.933L307.053,110.037L116.971,148.054L116.971,167.062L283.157,224.087Z" style="fill:rgb(255,249,245);"/>
    </g>
</svg>
